<svg version="1.1" viewBox="0.0 0.0 960.0 540.0" fill="none" stroke="none" stroke-linecap="square" stroke-miterlimit="10" xmlns:xlink="http://www.w3.org/1999/xlink" xmlns="http://www.w3.org/2000/svg"><clipPath id="p.0"><path d="m0 0l960.0 0l0 540.0l-960.0 0l0 -540.0z" clip-rule="nonzero"/></clipPath><g clip-path="url(#p.0)"><path fill="#ffffff" d="m0 0l960.0 0l0 540.0l-960.0 0z" fill-rule="evenodd"/><path fill="#d9d2e9" d="m120.73336 245.97375l0 0c0 -47.84439 40.59754 -86.62993 90.67716 -86.62993l0 0c24.049072 0 47.11316 9.12706 64.11844 25.373322c17.00528 16.246262 26.558716 38.280914 26.558716 61.256607l0 0c0 47.84439 -40.597534 86.62991 -90.677155 86.62991l0 0c-50.07962 0 -90.67716 -38.785522 -90.67716 -86.62991z" fill-rule="evenodd"/><path stroke="#595959" stroke-width="1.0" stroke-linejoin="round" stroke-linecap="butt" d="m120.73336 245.97375l0 0c0 -47.84439 40.59754 -86.62993 90.67716 -86.62993l0 0c24.049072 0 47.11316 9.12706 64.11844 25.373322c17.00528 16.246262 26.558716 38.280914 26.558716 61.256607l0 0c0 47.84439 -40.597534 86.62991 -90.677155 86.62991l0 0c-50.07962 0 -90.67716 -38.785522 -90.67716 -86.62991z" fill-rule="evenodd"/><path fill="#000000" d="m174.53009 256.63376l0 -20.82814l4.234375 0l0 17.296875l10.546875 0l0 3.5312653l-14.78125 0zm26.571045 -4.8437653l4.015625 0.671875q-0.765625 2.203125 -2.4375 3.359375q-1.671875 1.1562653 -4.171875 1.1562653q-3.96875 0 -5.875 -2.5937653q-1.5 -2.078125 -1.5 -5.234375q0 -3.78125 1.96875 -5.921875q1.984375 -2.140625 5.0 -2.140625q3.390625 0 5.34375 2.25q1.96875 2.234375 1.890625 6.859375l-10.078125 0q0.03125 1.78125 0.953125 2.78125q0.9375 1.0 2.328125 1.0q0.953125 0 1.59375 -0.515625q0.640625 -0.515625 0.96875 -1.671875zm0.234375 -4.0625q-0.046875 -1.75 -0.90625 -2.65625q-0.859375 -0.90625 -2.09375 -0.90625q-1.3125 0 -2.171875 0.953125q-0.859375 0.96875 -0.84375 2.609375l6.015625 0zm5.342163 8.906265l5.484375 -7.8281403l-5.25 -7.375l4.90625 0l2.6875 4.171875l2.84375 -4.171875l4.71875 0l-5.15625 7.203125l5.625 8.000015l-4.9375 0l-3.09375 -4.7187653l-3.109375 4.7187653l-4.71875 0zm27.045288 -4.8437653l4.015625 0.671875q-0.765625 2.203125 -2.4375 3.359375q-1.671875 1.1562653 -4.171875 1.1562653q-3.96875 0 -5.875 -2.5937653q-1.5 -2.078125 -1.5 -5.234375q0 -3.78125 1.96875 -5.921875q1.984375 -2.140625 5.0 -2.140625q3.390625 0 5.34375 2.25q1.96875 2.234375 1.890625 6.859375l-10.078125 0q0.03125 1.78125 0.953125 2.78125q0.9375 1.0 2.328125 1.0q0.953125 0 1.59375 -0.515625q0.640625 -0.515625 0.96875 -1.671875zm0.234375 -4.0625q-0.046875 -1.75 -0.90625 -2.65625q-0.859375 -0.90625 -2.09375 -0.90625q-1.3125 0 -2.171875 0.953125q-0.859375 0.96875 -0.84375 2.609375l6.015625 0zm11.123413 8.906265l-4.015625 0l0 -15.20314l3.734375 0l0 2.15625q0.953125 -1.53125 1.71875 -2.015625q0.765625 -0.484375 1.75 -0.484375q1.375 0 2.640625 0.75l-1.234375 3.515625q-1.03125 -0.65625 -1.890625 -0.65625q-0.859375 0 -1.453125 0.46875q-0.578125 0.453125 -0.921875 1.671875q-0.328125 1.21875 -0.328125 5.09375l0 4.7031403z" fill-rule="nonzero"/><path fill="#fff2cc" d="m17.690289 222.90752l100.18898 0l0 -23.055115l46.110237 46.11023l-46.110237 46.110245l0 -23.055115l-100.18898 0z" fill-rule="evenodd"/><path stroke="#595959" stroke-width="1.0" stroke-linejoin="round" stroke-linecap="butt" d="m17.690289 222.90752l100.18898 0l0 -23.055115l46.110237 46.11023l-46.110237 46.110245l0 -23.055115l-100.18898 0z" fill-rule="evenodd"/><path fill="#000000" d="m34.35082 252.88263l2.796875 -13.359375l2.75 0l-2.796875 13.359375l-2.75 0zm7.355179 -9.671875l2.46875 0l-0.25 1.25q0.921875 -0.796875 1.71875 -1.140625q0.8125 -0.34375 1.71875 -0.34375q1.1875 0 1.875 0.6875q0.6875 0.6875 0.6875 1.8125q0 0.515625 -0.296875 1.9375l-1.140625 5.46875l-2.609375 0l1.140625 -5.5q0.25 -1.21875 0.25 -1.453125q0 -0.5 -0.296875 -0.78125q-0.296875 -0.296875 -0.8125 -0.296875q-0.578125 0 -1.28125 0.484375q-0.703125 0.484375 -1.109375 1.265625q-0.28125 0.5625 -0.640625 2.3125l-0.84375 3.96875l-2.609375 0l2.03125 -9.671875zm11.270981 0l2.484375 0l-0.21875 0.984375q0.796875 -0.65625 1.484375 -0.9375q0.6875 -0.28125 1.484375 -0.28125q1.53125 0 2.453125 1.046875q0.921875 1.046875 0.921875 3.125q0 2.625 -1.59375 4.421875q-1.375 1.546875 -3.234375 1.546875q-1.921875 0 -2.90625 -1.5625l-1.046875 5.015625l-2.609375 0l2.78125 -13.359375zm1.578125 5.546875q0 1.125 0.546875 1.75q0.546875 0.625 1.296875 0.625q0.65625 0 1.25 -0.46875q0.609375 -0.46875 1.0 -1.546875q0.390625 -1.09375 0.390625 -2.03125q0 -1.078125 -0.515625 -1.65625q-0.515625 -0.578125 -1.3125 -0.578125q-0.75 0 -1.375 0.53125q-0.609375 0.53125 -0.953125 1.5625q-0.328125 1.03125 -0.328125 1.8125zm9.88036 -5.546875l2.609375 0l-1.1875 5.734375q-0.21875 1.015625 -0.21875 1.28125q0 0.421875 0.3125 0.71875q0.3125 0.296875 0.796875 0.296875q0.34375 0 0.671875 -0.125q0.34375 -0.140625 0.6875 -0.40625q0.359375 -0.265625 0.640625 -0.609375q0.28125 -0.359375 0.53125 -0.921875q0.171875 -0.421875 0.375 -1.359375l0.96875 -4.609375l2.609375 0l-2.015625 9.671875l-2.4375 0l0.265625 -1.3125q-1.609375 1.546875 -3.484375 1.546875q-1.203125 0 -1.8906288 -0.6875q-0.671875 -0.6875 -0.671875 -1.828125q0 -0.5 0.3125 -2.0l1.1250038 -5.390625zm10.052231 1.9375l0.390625 -1.9375l1.28125 0l0.3125 -1.546875l3.0 -1.8125l-0.703125 3.359375l1.59375 0l-0.390625 1.9375l-1.609375 0l-0.84375 4.046875q-0.234375 1.109375 -0.234375 1.265625q0 0.296875 0.1875 0.46875q0.203125 0.171875 0.703125 0.171875q0.171875 0 0.859375 -0.0625l-0.40625 1.9375q-0.671875 0.140625 -1.390625 0.140625q-1.375 0 -2.015625 -0.53125q-0.625 -0.546875 -0.625 -1.484375q0 -0.453125 0.34375 -2.0625l0.8125 -3.890625l-1.265625 0zm10.802231 7.734375l2.796875 -13.359375l3.59375 0q1.5 0 1.921875 0.046875q0.828125 0.078125 1.484375 0.34375q0.65625 0.25 1.1875 0.71875q0.53125 0.453125 0.90625 1.109375q0.390625 0.640625 0.59375 1.484375q0.21875 0.84375 0.21875 1.84375q0 2.15625 -0.828125 3.828125q-0.8125 1.671875 -2.0625 2.65625q-0.953125 0.765625 -2.46875 1.125q-0.859375 0.203125 -2.640625 0.203125l-4.703125 0zm3.203125 -2.15625l1.390625 0q1.515625 0 2.1875 -0.171875q0.671875 -0.1875 1.25 -0.703125q0.796875 -0.734375 1.359375 -1.96875q0.5625 -1.234375 0.5625 -2.890625q0 -1.421875 -0.46875 -2.140625q-0.453125 -0.71875 -1.125 -0.953125q-0.484375 -0.171875 -1.6875 -0.171875l-1.59375 0l-1.875 9.0zm13.894821 -4.78125l-2.546875 -0.21875q0.4375 -1.28125 1.515625 -2.015625q1.09375 -0.734375 2.890625 -0.734375q1.859375 0 2.75 0.75q0.90625 0.75 0.90625 1.84375q0 0.4375 -0.078125 0.9375q-0.078125 0.484375 -0.546875 2.578125q-0.375 1.734375 -0.375 2.421875q0 0.625 0.21875 1.375l-2.546875 0q-0.15625 -0.53125 -0.1875 -1.09375q-0.578125 0.640625 -1.328125 0.984375q-0.75 0.34375 -1.5 0.34375q-1.203125 0 -1.984375 -0.78125q-0.78125 -0.796875 -0.78125 -2.046875q0 -1.375 0.859375 -2.203125q0.859375 -0.828125 3.0625 -1.0q1.875 -0.15625 2.5 -0.375q0.171875 -0.546875 0.171875 -0.875q0 -0.421875 -0.34375 -0.703125q-0.328125 -0.28125 -1.0 -0.28125q-0.703125 0 -1.109375 0.296875q-0.40625 0.28125 -0.546875 0.796875zm2.484375 2.421875q-0.234375 0.0625 -0.625 0.125q-1.96875 0.234375 -2.578125 0.6875q-0.421875 0.328125 -0.421875 0.890625q0 0.453125 0.328125 0.765625q0.328125 0.3125 0.859375 0.3125q0.59375 0 1.109375 -0.28125q0.53125 -0.296875 0.796875 -0.734375q0.265625 -0.453125 0.453125 -1.40625l0.078125 -0.359375zm4.860092 -3.21875l0.390625 -1.9375l1.28125 0l0.3125 -1.546875l3.0 -1.8125l-0.703125 3.359375l1.59375 0l-0.390625 1.9375l-1.609375 0l-0.84375 4.046875q-0.234375 1.109375 -0.234375 1.265625q0 0.296875 0.1875 0.46875q0.203125 0.171875 0.703125 0.171875q0.171875 0 0.859375 -0.0625l-0.40625 1.9375q-0.671875 0.140625 -1.390625 0.140625q-1.375 0 -2.015625 -0.53125q-0.625 -0.546875 -0.625 -1.484375q0 -0.453125 0.34375 -2.0625l0.8125 -3.890625l-1.265625 0zm9.243927 0.796875l-2.546875 -0.21875q0.4375 -1.28125 1.515625 -2.015625q1.09375 -0.734375 2.890625 -0.734375q1.859375 0 2.75 0.75q0.90625 0.75 0.90625 1.84375q0 0.4375 -0.078125 0.9375q-0.078125 0.484375 -0.546875 2.578125q-0.375 1.734375 -0.375 2.421875q0 0.625 0.21875 1.375l-2.546875 0q-0.15625 -0.53125 -0.1875 -1.09375q-0.578125 0.640625 -1.328125 0.984375q-0.75 0.34375 -1.5 0.34375q-1.203125 0 -1.984375 -0.78125q-0.78125 -0.796875 -0.78125 -2.046875q0 -1.375 0.859375 -2.203125q0.859375 -0.828125 3.0625 -1.0q1.875 -0.15625 2.5 -0.375q0.171875 -0.546875 0.171875 -0.875q0 -0.421875 -0.34375 -0.703125q-0.328125 -0.28125 -1.0 -0.28125q-0.703125 0 -1.109375 0.296875q-0.40625 0.28125 -0.546875 0.796875zm2.484375 2.421875q-0.234375 0.0625 -0.625 0.125q-1.96875 0.234375 -2.578125 0.6875q-0.421875 0.328125 -0.421875 0.890625q0 0.453125 0.328125 0.765625q0.328125 0.3125 0.859375 0.3125q0.59375 0 1.109375 -0.28125q0.53125 -0.296875 0.796875 -0.734375q0.265625 -0.453125 0.453125 -1.40625l0.078125 -0.359375z" fill-rule="nonzero"/><path fill="#d9d2e9" d="m348.86722 245.97375l0 0c0 -47.84439 40.597565 -86.62993 90.677185 -86.62993l0 0c24.049072 0 47.11316 9.12706 64.11844 25.373322c17.005249 16.246262 26.558716 38.280914 26.558716 61.256607l0 0c0 47.84439 -40.597565 86.62991 -90.677155 86.62991l0 0c-50.07962 0 -90.677185 -38.785522 -90.677185 -86.62991z" fill-rule="evenodd"/><path stroke="#595959" stroke-width="1.0" stroke-linejoin="round" stroke-linecap="butt" d="m348.86722 245.97375l0 0c0 -47.84439 40.597565 -86.62993 90.677185 -86.62993l0 0c24.049072 0 47.11316 9.12706 64.11844 25.373322c17.005249 16.246262 26.558716 38.280914 26.558716 61.256607l0 0c0 47.84439 -40.597565 86.62991 -90.677155 86.62991l0 0c-50.07962 0 -90.677185 -38.785522 -90.677185 -86.62991z" fill-rule="evenodd"/><path fill="#000000" d="m396.02448 256.63376l0 -21.000015l6.796875 0q3.859375 0 5.046875 0.328125q1.796875 0.46875 3.015625 2.046875q1.21875 1.578125 1.21875 4.09375q0 1.921875 -0.703125 3.25q-0.703125 1.3125 -1.78125 2.0625q-1.078125 0.75 -2.203125 1.0q-1.515625 0.296875 -4.390625 0.296875l-2.765625 0l0 7.9218903l-4.234375 0zm4.234375 -17.437515l0 5.953125l2.3125 0q2.515625 0 3.359375 -0.328125q0.84375 -0.328125 1.3125 -1.03125q0.484375 -0.703125 0.484375 -1.640625q0 -1.140625 -0.671875 -1.875q-0.671875 -0.75 -1.703125 -0.9375q-0.75 -0.140625 -3.046875 -0.140625l-2.046875 0zm18.29602 6.875l-3.65625 -0.671875q0.625 -2.203125 2.125 -3.25q1.5 -1.0625 4.46875 -1.0625q2.6875 0 4.0 0.640625q1.328125 0.625 1.859375 1.609375q0.546875 0.984375 0.546875 3.609375l-0.046875 4.6875q0 2.0 0.1875 2.953125q0.203125 0.953125 0.734375 2.0468903l-3.984375 0q-0.15625 -0.40625 -0.390625 -1.1875153q-0.09375 -0.359375 -0.140625 -0.46875q-1.03125 1.0 -2.203125 1.5000153q-1.171875 0.5 -2.515625 0.5q-2.34375 0 -3.703125 -1.2656403q-1.34375 -1.28125 -1.34375 -3.234375q0 -1.28125 0.609375 -2.28125q0.625 -1.015625 1.734375 -1.546875q1.109375 -0.546875 3.203125 -0.953125q2.8125 -0.53125 3.90625 -0.984375l0 -0.40625q0 -1.15625 -0.578125 -1.640625q-0.578125 -0.5 -2.15625 -0.5q-1.078125 0 -1.6875 0.421875q-0.59375 0.421875 -0.96875 1.484375zm5.390625 3.265625q-0.78125 0.25 -2.453125 0.609375q-1.671875 0.359375 -2.1875 0.703125q-0.796875 0.5625 -0.796875 1.421875q0 0.84375 0.625 1.46875q0.640625 0.609375 1.609375 0.609375q1.09375 0 2.078125 -0.71875q0.734375 -0.546875 0.96875 -1.34375q0.15625 -0.515625 0.15625 -1.953125l0 -0.796875zm11.764038 7.2968903l-4.015625 0l0 -15.20314l3.734375 0l0 2.15625q0.953125 -1.53125 1.71875 -2.015625q0.765625 -0.484375 1.75 -0.484375q1.375 0 2.640625 0.75l-1.234375 3.515625q-1.03125 -0.65625 -1.890625 -0.65625q-0.859375 0 -1.453125 0.46875q-0.578125 0.453125 -0.921875 1.671875q-0.328125 1.21875 -0.328125 5.09375l0 4.7031403zm6.147705 -4.3437653l4.03125 -0.609375q0.265625 1.171875 1.046875 1.78125q0.796875 0.609375 2.203125 0.609375q1.5625 0 2.359375 -0.578125q0.53125 -0.390625 0.53125 -1.0625q0 -0.46875 -0.296875 -0.765625q-0.296875 -0.28125 -1.34375 -0.53125q-4.859375 -1.078125 -6.171875 -1.953125q-1.796875 -1.234375 -1.796875 -3.4375q0 -1.96875 1.5625 -3.3125q1.5625 -1.34375 4.828125 -1.34375q3.125 0 4.640625 1.015625q1.53125 1.015625 2.09375 3.0l-3.796875 0.703125q-0.234375 -0.890625 -0.921875 -1.359375q-0.671875 -0.46875 -1.9375 -0.46875q-1.59375 0 -2.28125 0.4375q-0.453125 0.3125 -0.453125 0.8125q0 0.4375 0.40625 0.734375q0.53125 0.40625 3.75 1.140625q3.21875 0.71875 4.5 1.78125q1.25 1.078125 1.25 3.0q0 2.09375 -1.75 3.59375q-1.734375 1.5000153 -5.171875 1.5000153q-3.09375 0 -4.90625 -1.2500153q-1.8125 -1.265625 -2.375 -3.4375zm26.529663 -0.5l4.015625 0.671875q-0.765625 2.203125 -2.4375 3.359375q-1.671875 1.1562653 -4.171875 1.1562653q-3.96875 0 -5.875 -2.5937653q-1.5 -2.078125 -1.5 -5.234375q0 -3.78125 1.96875 -5.921875q1.984375 -2.140625 5.0 -2.140625q3.390625 0 5.34375 2.25q1.96875 2.234375 1.890625 6.859375l-10.078125 0q0.03125 1.78125 0.953125 2.78125q0.9375 1.0 2.328125 1.0q0.953125 0 1.59375 -0.515625q0.640625 -0.515625 0.96875 -1.671875zm0.234375 -4.0625q-0.046875 -1.75 -0.90625 -2.65625q-0.859375 -0.90625 -2.09375 -0.90625q-1.3125 0 -2.171875 0.953125q-0.859375 0.96875 -0.84375 2.609375l6.015625 0zm11.123413 8.906265l-4.015625 0l0 -15.20314l3.734375 0l0 2.15625q0.953125 -1.53125 1.71875 -2.015625q0.765625 -0.484375 1.75 -0.484375q1.375 0 2.640625 0.75l-1.234375 3.515625q-1.03125 -0.65625 -1.890625 -0.65625q-0.859375 0 -1.453125 0.46875q-0.578125 0.453125 -0.921875 1.671875q-0.328125 1.21875 -0.328125 5.09375l0 4.7031403z" fill-rule="nonzero"/><path fill="#fff2cc" d="m258.17172 222.90752l80.0 0l0 -23.055115l46.11023 46.11023l-46.11023 46.110245l0 -23.055115l-80.0 0z" fill-rule="evenodd"/><path stroke="#595959" stroke-width="1.0" stroke-linejoin="round" stroke-linecap="butt" d="m258.17172 222.90752l80.0 0l0 -23.055115l46.11023 46.11023l-46.11023 46.110245l0 -23.055115l-80.0 0z" fill-rule="evenodd"/><path fill="#000000" d="m283.9662 252.88263l-2.75 0l2.328125 -11.125l-3.921875 0l0.46875 -2.234375l10.53125 0l-0.46875 2.234375l-3.859375 0l-2.328125 11.125zm5.2501526 -4.015625q0 -2.6875 1.515625 -4.28125q1.515625 -1.609375 3.984375 -1.609375q2.140625 0 3.34375 1.1875q1.203125 1.171875 1.203125 3.171875q0 2.34375 -1.5 4.0625q-1.5 1.71875 -4.03125 1.71875q-1.359375 0 -2.421875 -0.546875q-1.046875 -0.546875 -1.578125 -1.546875q-0.515625 -1.015625 -0.515625 -2.15625zm7.453125 -1.875q0 -0.921875 -0.546875 -1.484375q-0.53125 -0.5625 -1.390625 -0.5625q-0.84375 0 -1.5 0.53125q-0.65625 0.515625 -1.03125 1.515625q-0.359375 1.0 -0.359375 1.84375q0 1.03125 0.5625 1.640625q0.5625 0.609375 1.421875 0.609375q1.078125 0 1.8125 -0.921875q1.03125 -1.296875 1.03125 -3.171875zm3.520996 5.890625l2.796875 -13.359375l2.609375 0l-1.453125 6.953125l3.40625 -3.265625l3.390625 0l-3.890625 3.515625l2.078125 6.15625l-2.625 0l-1.328125 -4.46875l-1.765625 1.5625l-0.609375 2.90625l-2.609375 0zm19.844452 -4.03125l-6.5625 0q-0.015625 0.15625 -0.015625 0.234375q0 0.96875 0.546875 1.5625q0.5625 0.59375 1.359375 0.59375q1.296875 0 2.03125 -1.34375l2.328125 0.390625q-0.671875 1.40625 -1.828125 2.125q-1.140625 0.703125 -2.5625 0.703125q-1.9375 0 -3.171875 -1.234375q-1.21875 -1.234375 -1.21875 -3.265625q0 -2.0 1.109375 -3.546875q1.5 -2.09375 4.296875 -2.09375q1.765625 0 2.8125 1.109375q1.046875 1.09375 1.046875 3.0625q0 0.953125 -0.171875 1.703125zm-2.203125 -1.59375q0 -0.171875 0 -0.265625q0 -1.0625 -0.484375 -1.59375q-0.484375 -0.546875 -1.296875 -0.546875q-0.796875 0 -1.453125 0.609375q-0.640625 0.609375 -0.859375 1.796875l4.09375 0zm5.2194824 -4.046875l2.46875 0l-0.25 1.25q0.921875 -0.796875 1.71875 -1.140625q0.8125 -0.34375 1.71875 -0.34375q1.1875 0 1.875 0.6875q0.6875 0.6875 0.6875 1.8125q0 0.515625 -0.296875 1.9375l-1.140625 5.46875l-2.609375 0l1.140625 -5.5q0.25 -1.21875 0.25 -1.453125q0 -0.5 -0.296875 -0.78125q-0.296875 -0.296875 -0.8125 -0.296875q-0.578125 0 -1.28125 0.484375q-0.703125 0.484375 -1.109375 1.265625q-0.28125 0.5625 -0.640625 2.3125l-0.84375 3.96875l-2.609375 0l2.03125 -9.671875zm8.989716 6.96875l2.53125 -0.40625q0.34375 0.796875 0.84375 1.140625q0.5 0.328125 1.359375 0.328125q0.90625 0 1.4375 -0.40625q0.375 -0.265625 0.375 -0.65625q0 -0.265625 -0.1875 -0.46875q-0.203125 -0.203125 -1.09375 -0.5q-2.359375 -0.78125 -2.9375 -1.234375q-0.875 -0.71875 -0.875 -1.859375q0 -1.15625 0.859375 -1.984375q1.1875 -1.15625 3.546875 -1.15625q1.859375 0 2.8125 0.6875q0.953125 0.6875 1.21875 1.84375l-2.421875 0.421875q-0.1875 -0.53125 -0.609375 -0.796875q-0.59375 -0.34375 -1.40625 -0.34375q-0.828125 0 -1.1875 0.28125q-0.359375 0.265625 -0.359375 0.609375q0 0.375 0.375 0.609375q0.21875 0.140625 1.46875 0.515625q1.90625 0.546875 2.546875 1.09375q0.921875 0.75 0.921875 1.8125q0 1.375 -1.15625 2.390625q-1.15625 1.015625 -3.265625 1.015625q-2.09375 0 -3.25 -0.765625q-1.140625 -0.78125 -1.546875 -2.171875z" fill-rule="nonzero"/><path fill="#d9d2e9" d="m627.6293 245.97375l0 0c0 -47.84439 40.597595 -86.62993 90.677185 -86.62993l0 0c24.049072 0 47.11316 9.12706 64.11847 25.373322c17.005249 16.246262 26.558716 38.280914 26.558716 61.256607l0 0c0 47.84439 -40.597595 86.62991 -90.677185 86.62991l0 0c-50.07959 0 -90.677185 -38.785522 -90.677185 -86.62991z" fill-rule="evenodd"/><path stroke="#595959" stroke-width="1.0" stroke-linejoin="round" stroke-linecap="butt" d="m627.6293 245.97375l0 0c0 -47.84439 40.597595 -86.62993 90.677185 -86.62993l0 0c24.049072 0 47.11316 9.12706 64.11847 25.373322c17.005249 16.246262 26.558716 38.280914 26.558716 61.256607l0 0c0 47.84439 -40.597595 86.62991 -90.677185 86.62991l0 0c-50.07959 0 -90.677185 -38.785522 -90.677185 -86.62991z" fill-rule="evenodd"/><path fill="#000000" d="m675.996 247.84438l0 -2.578125l6.640625 0l0 6.078125q-0.96875 0.9375 -2.8125 1.65625q-1.828125 0.71875 -3.71875 0.71875q-2.390625 0 -4.171875 -1.0q-1.78125 -1.015625 -2.6875 -2.875q-0.890625 -1.875 -0.890625 -4.078125q0 -2.390625 1.0 -4.234375q1.0 -1.859375 2.9375 -2.84375q1.46875 -0.765625 3.65625 -0.765625q2.828125 0 4.421875 1.203125q1.609375 1.1875 2.0625 3.296875l-3.0625 0.5625q-0.3125 -1.125 -1.203125 -1.765625q-0.890625 -0.65625 -2.21875 -0.65625q-2.03125 0 -3.21875 1.28125q-1.1875 1.28125 -1.1875 3.796875q0 2.71875 1.203125 4.078125q1.203125 1.359375 3.171875 1.359375q0.96875 0 1.9375 -0.375q0.96875 -0.390625 1.671875 -0.921875l0 -1.9375l-3.53125 0zm15.870972 2.09375l2.90625 0.484375q-0.546875 1.609375 -1.765625 2.453125q-1.21875 0.828125 -3.03125 0.828125q-2.890625 0 -4.28125 -1.890625q-1.09375 -1.5 -1.09375 -3.8125q0 -2.75 1.4375 -4.296875q1.4375 -1.5625 3.640625 -1.5625q2.46875 0 3.890625 1.640625q1.421875 1.625 1.359375 4.984375l-7.328125 0q0.03125 1.296875 0.703125 2.03125q0.6875 0.71875 1.703125 0.71875q0.6875 0 1.15625 -0.375q0.46875 -0.375 0.703125 -1.203125zm0.171875 -2.96875q-0.03125 -1.265625 -0.65625 -1.921875q-0.625 -0.671875 -1.53125 -0.671875q-0.953125 0 -1.578125 0.703125q-0.625 0.703125 -0.609375 1.890625l4.375 0zm15.346069 6.484375l-2.921875 0l0 -5.640625q0 -1.796875 -0.1875 -2.3125q-0.1875 -0.53125 -0.609375 -0.828125q-0.421875 -0.296875 -1.015625 -0.296875q-0.765625 0 -1.375 0.421875q-0.59375 0.421875 -0.828125 1.109375q-0.21875 0.6875 -0.21875 2.53125l0 5.015625l-2.921875 0l0 -11.0625l2.71875 0l0 1.625q1.4375 -1.875 3.640625 -1.875q0.96875 0 1.765625 0.359375q0.8125 0.34375 1.21875 0.890625q0.40625 0.53125 0.5625 1.21875q0.171875 0.6875 0.171875 1.96875l0 6.875zm9.371826 -3.515625l2.90625 0.484375q-0.546875 1.609375 -1.765625 2.453125q-1.21875 0.828125 -3.03125 0.828125q-2.890625 0 -4.28125 -1.890625q-1.09375 -1.5 -1.09375 -3.8125q0 -2.75 1.4375 -4.296875q1.4375 -1.5625 3.640625 -1.5625q2.46875 0 3.890625 1.640625q1.421875 1.625 1.359375 4.984375l-7.328125 0q0.03125 1.296875 0.703125 2.03125q0.6875 0.71875 1.703125 0.71875q0.6875 0 1.15625 -0.375q0.46875 -0.375 0.703125 -1.203125zm0.171875 -2.96875q-0.03125 -1.265625 -0.65625 -1.921875q-0.625 -0.671875 -1.53125 -0.671875q-0.953125 0 -1.578125 0.703125q-0.625 0.703125 -0.609375 1.890625l4.375 0zm8.080444 6.484375l-2.921875 0l0 -11.0625l2.71875 0l0 1.578125q0.703125 -1.125 1.25 -1.46875q0.5625 -0.359375 1.265625 -0.359375q1.0 0 1.9375 0.5625l-0.90625 2.546875q-0.75 -0.484375 -1.375 -0.484375q-0.625 0 -1.046875 0.34375q-0.421875 0.328125 -0.671875 1.21875q-0.25 0.890625 -0.25 3.703125l0 3.421875zm7.690674 -7.6875l-2.65625 -0.484375q0.453125 -1.59375 1.546875 -2.359375q1.09375 -0.78125 3.25 -0.78125q1.953125 0 2.90625 0.46875q0.96875 0.453125 1.359375 1.171875q0.390625 0.71875 0.390625 2.625l-0.03125 3.40625q0 1.46875 0.125 2.15625q0.140625 0.6875 0.53125 1.484375l-2.890625 0q-0.109375 -0.296875 -0.28125 -0.859375q-0.078125 -0.265625 -0.109375 -0.34375q-0.75 0.71875 -1.609375 1.09375q-0.84375 0.359375 -1.8125 0.359375q-1.703125 0 -2.6875 -0.921875q-0.984375 -0.9375 -0.984375 -2.34375q0 -0.9375 0.4375 -1.671875q0.453125 -0.734375 1.25 -1.125q0.8125 -0.390625 2.34375 -0.6875q2.046875 -0.390625 2.84375 -0.71875l0 -0.296875q0 -0.84375 -0.421875 -1.203125q-0.421875 -0.359375 -1.578125 -0.359375q-0.78125 0 -1.21875 0.3125q-0.4375 0.3125 -0.703125 1.078125zm3.921875 2.375q-0.5625 0.1875 -1.78125 0.453125q-1.21875 0.25 -1.59375 0.5q-0.578125 0.40625 -0.578125 1.03125q0 0.625 0.453125 1.078125q0.46875 0.4375 1.171875 0.4375q0.796875 0 1.515625 -0.515625q0.53125 -0.40625 0.6875 -0.96875q0.125 -0.375 0.125 -1.4375l0 -0.578125zm10.830444 -5.75l0 2.328125l-2.0 0l0 4.46875q0 1.34375 0.046875 1.578125q0.0625 0.21875 0.265625 0.375q0.203125 0.140625 0.5 0.140625q0.40625 0 1.171875 -0.28125l0.25 2.265625q-1.015625 0.4375 -2.3125 0.4375q-0.796875 0 -1.4375 -0.265625q-0.625 -0.265625 -0.921875 -0.6875q-0.296875 -0.421875 -0.40625 -1.140625q-0.09375 -0.515625 -0.09375 -2.0625l0 -4.828125l-1.34375 0l0 -2.328125l1.34375 0l0 -2.1875l2.9375 -1.71875l0 3.90625l2.0 0zm1.352417 5.375q0 -1.453125 0.71875 -2.8125q0.71875 -1.375 2.03125 -2.09375q1.3125 -0.71875 2.9375 -0.71875q2.515625 0 4.109375 1.640625q1.609375 1.625 1.609375 4.109375q0 2.515625 -1.625 4.171875q-1.609375 1.640625 -4.0625 1.640625q-1.53125 0 -2.90625 -0.6875q-1.375 -0.6875 -2.09375 -2.015625q-0.71875 -1.328125 -0.71875 -3.234375zm3.0 0.15625q0 1.640625 0.78125 2.515625q0.78125 0.875 1.921875 0.875q1.140625 0 1.921875 -0.875q0.78125 -0.875 0.78125 -2.53125q0 -1.625 -0.78125 -2.5q-0.78125 -0.875 -1.921875 -0.875q-1.140625 0 -1.921875 0.875q-0.78125 0.875 -0.78125 2.515625zm13.496826 5.53125l-2.921875 0l0 -11.0625l2.71875 0l0 1.578125q0.703125 -1.125 1.25 -1.46875q0.5625 -0.359375 1.265625 -0.359375q1.0 0 1.9375 0.5625l-0.90625 2.546875q-0.75 -0.484375 -1.375 -0.484375q-0.625 0 -1.046875 0.34375q-0.421875 0.328125 -0.671875 1.21875q-0.25 0.890625 -0.25 3.703125l0 3.421875z" fill-rule="nonzero"/><path fill="#fff2cc" d="m504.2834 222.90752l109.480286 0l0 -23.055115l46.11029 46.11023l-46.11029 46.110245l0 -23.055115l-109.480286 0z" fill-rule="evenodd"/><path stroke="#595959" stroke-width="1.0" stroke-linejoin="round" stroke-linecap="butt" d="m504.2834 222.90752l109.480286 0l0 -23.055115l46.11029 46.11023l-46.11029 46.110245l0 -23.055115l-109.480286 0z" fill-rule="evenodd"/><path fill="#000000" d="m542.2259 238.9295l-5.296875 0l-1.609375 2.953125l-2.8125 0l7.546875 -13.359375l3.046875 0l2.171875 13.359375l-2.609375 0l-0.4375 -2.953125zm-0.34375 -2.21875l-0.765625 -5.375l-3.234375 5.375l4.0 0zm4.9729614 5.171875l2.796875 -13.359375l2.609375 0l-0.9375 4.46875q0.71875 -0.546875 1.34375 -0.78125q0.625 -0.234375 1.375 -0.234375q1.515625 0 2.4375 1.03125q0.921875 1.015625 0.921875 2.984375q0 1.3125 -0.4375 2.5625q-0.421875 1.234375 -1.15625 2.015625q-0.71875 0.78125 -1.515625 1.171875q-0.796875 0.375 -1.671875 0.375q-2.078125 0 -3.046875 -1.828125l-0.34375 1.59375l-2.375 0zm3.53125 -3.9375q0 0.96875 0.546875 1.578125q0.546875 0.609375 1.296875 0.609375q0.65625 0 1.25 -0.46875q0.59375 -0.484375 0.984375 -1.515625q0.40625 -1.03125 0.40625 -2.09375q0 -1.03125 -0.53125 -1.609375q-0.53125 -0.59375 -1.28125 -0.59375q-0.984375 0 -1.703125 0.90625q-0.96875 1.25 -0.96875 3.1875zm7.59906 1.234375l2.53125 -0.40625q0.34375 0.796875 0.84375 1.140625q0.5 0.328125 1.359375 0.328125q0.90625 0 1.4375 -0.40625q0.375 -0.265625 0.375 -0.65625q0 -0.265625 -0.1875 -0.46875q-0.203125 -0.203125 -1.09375 -0.5q-2.359375 -0.78125 -2.9375 -1.234375q-0.875 -0.71875 -0.875 -1.859375q0 -1.15625 0.859375 -1.984375q1.1875 -1.15625 3.546875 -1.15625q1.859375 0 2.8125 0.6875q0.953125 0.6875 1.21875 1.84375l-2.421875 0.421875q-0.1875 -0.53125 -0.609375 -0.796875q-0.59375 -0.34375 -1.40625 -0.34375q-0.828125 0 -1.1875 0.28125q-0.359375 0.265625 -0.359375 0.609375q0 0.375 0.375 0.609375q0.21875 0.140625 1.46875 0.515625q1.90625 0.546875 2.546875 1.09375q0.921875 0.75 0.921875 1.8125q0 1.375 -1.15625 2.390625q-1.15625 1.015625 -3.265625 1.015625q-2.09375 0 -3.25 -0.765625q-1.140625 -0.78125 -1.546875 -2.171875zm11.375732 -5.03125l0.390625 -1.9375l1.28125 0l0.3125 -1.546875l3.0 -1.8125l-0.703125 3.359375l1.59375 0l-0.390625 1.9375l-1.609375 0l-0.84375 4.046875q-0.234375 1.109375 -0.234375 1.265625q0 0.296875 0.1875 0.46875q0.203125 0.171875 0.703125 0.171875q0.171875 0 0.859375 -0.0625l-0.40625 1.9375q-0.671875 0.140625 -1.390625 0.140625q-1.375 0 -2.015625 -0.53125q-0.625 -0.546875 -0.625 -1.484375q0 -0.453125 0.34375 -2.0625l0.8125 -3.890625l-1.265625 0zm7.4314575 -1.9375l2.4375 0l-0.390625 1.875q1.375 -2.109375 2.96875 -2.109375q0.5625 0 1.203125 0.28125l-1.0 2.140625q-0.359375 -0.125 -0.75 -0.125q-0.6875 0 -1.390625 0.515625q-0.6875 0.5 -1.078125 1.359375q-0.390625 0.859375 -0.765625 2.703125l-0.640625 3.03125l-2.625 0l2.03125 -9.671875zm9.072754 2.734375l-2.546875 -0.21875q0.4375 -1.28125 1.515625 -2.015625q1.09375 -0.734375 2.890625 -0.734375q1.859375 0 2.75 0.75q0.90625 0.75 0.90625 1.84375q0 0.4375 -0.078125 0.9375q-0.078125 0.484375 -0.546875 2.578125q-0.375 1.734375 -0.375 2.421875q0 0.625 0.21875 1.375l-2.546875 0q-0.15625 -0.53125 -0.1875 -1.09375q-0.578125 0.640625 -1.328125 0.984375q-0.75 0.34375 -1.5 0.34375q-1.203125 0 -1.984375 -0.78125q-0.78125 -0.796875 -0.78125 -2.046875q0 -1.375 0.859375 -2.203125q0.859375 -0.828125 3.0625 -1.0q1.875 -0.15625 2.5 -0.375q0.171875 -0.546875 0.171875 -0.875q0 -0.421875 -0.34375 -0.703125q-0.328125 -0.28125 -1.0 -0.28125q-0.703125 0 -1.109375 0.296875q-0.40625 0.28125 -0.546875 0.796875zm2.484375 2.421875q-0.234375 0.0625 -0.625 0.125q-1.96875 0.234375 -2.578125 0.6875q-0.421875 0.328125 -0.421875 0.890625q0 0.453125 0.328125 0.765625q0.328125 0.3125 0.859375 0.3125q0.59375 0 1.109375 -0.28125q0.53125 -0.296875 0.796875 -0.734375q0.265625 -0.453125 0.453125 -1.40625l0.078125 -0.359375zm10.766357 0.875l2.53125 0.40625q-0.625 1.6875 -1.859375 2.578125q-1.21875 0.890625 -2.84375 0.890625q-1.859375 0 -2.9375 -1.109375q-1.078125 -1.109375 -1.078125 -3.03125q0 -1.578125 0.65625 -2.984375q0.65625 -1.40625 1.96875 -2.203125q1.328125 -0.8125 2.90625 -0.8125q1.703125 0 2.71875 0.90625q1.03125 0.890625 1.15625 2.34375l-2.484375 0.265625q-0.09375 -0.8125 -0.5 -1.1875q-0.40625 -0.390625 -1.0625 -0.390625q-0.75 0 -1.40625 0.5625q-0.65625 0.5625 -1.015625 1.6875q-0.34375 1.125 -0.34375 2.109375q0 0.859375 0.421875 1.328125q0.421875 0.453125 1.046875 0.453125q0.625 0 1.203125 -0.453125q0.59375 -0.453125 0.921875 -1.359375zm4.4694214 -4.09375l0.390625 -1.9375l1.28125 0l0.3125 -1.546875l3.0 -1.8125l-0.703125 3.359375l1.59375 0l-0.390625 1.9375l-1.609375 0l-0.84375 4.046875q-0.234375 1.109375 -0.234375 1.265625q0 0.296875 0.1875 0.46875q0.203125 0.171875 0.703125 0.171875q0.171875 0 0.859375 -0.0625l-0.40625 1.9375q-0.671875 0.140625 -1.390625 0.140625q-1.375 0 -2.015625 -0.53125q-0.625 -0.546875 -0.625 -1.484375q0 -0.453125 0.34375 -2.0625l0.8125 -3.890625l-1.265625 0z" fill-rule="nonzero"/><path fill="#000000" d="m519.02203 259.5545l2.609375 -0.140625q0.0625 1.25 0.4375 1.6875q0.59375 0.71875 2.21875 0.71875q1.34375 0 1.9375 -0.484375q0.609375 -0.484375 0.609375 -1.171875q0 -0.59375 -0.484375 -1.0q-0.359375 -0.296875 -1.90625 -0.96875q-1.546875 -0.6875 -2.265625 -1.125q-0.71875 -0.453125 -1.125 -1.171875q-0.40625 -0.71875 -0.40625 -1.6875q0 -1.6875 1.21875 -2.796875q1.21875 -1.109375 3.53125 -1.109375q2.34375 0 3.625 1.109375q1.296875 1.09375 1.421875 2.921875l-2.625 0.125q-0.09375 -0.96875 -0.6875 -1.46875q-0.59375 -0.515625 -1.75 -0.515625q-1.140625 0 -1.640625 0.40625q-0.484375 0.390625 -0.484375 1.0q0 0.578125 0.453125 0.953125q0.453125 0.390625 1.984375 1.046875q2.296875 1.0 2.921875 1.609375q0.9375 0.921875 0.9375 2.34375q0 1.765625 -1.40625 3.03125q-1.390625 1.25 -3.875 1.25q-1.734375 0 -3.0 -0.578125q-1.25 -0.578125 -1.78125 -1.609375q-0.515625 -1.03125 -0.46875 -2.375zm12.8186035 -5.34375l2.59375 0l0.65625 4.8125q0.25 1.859375 0.28125 2.609375q0.515625 -1.484375 1.40625 -3.140625l2.3125 -4.28125l2.765625 0l-5.96875 10.625q-0.75 1.3125 -1.171875 1.84375q-0.421875 0.53125 -1.015625 0.828125q-0.59375 0.296875 -1.4375 0.296875q-0.828125 0 -1.859375 -0.28125l0.21875 -1.953125q0.46875 0.140625 0.921875 0.140625q1.203125 0 1.984375 -1.828125l-1.6875 -9.671875zm11.625671 0l2.46875 0l-0.25 1.25q0.921875 -0.796875 1.71875 -1.140625q0.8125 -0.34375 1.71875 -0.34375q1.1875 0 1.875 0.6875q0.6875 0.6875 0.6875 1.8125q0 0.515625 -0.296875 1.9375l-1.140625 5.46875l-2.609375 0l1.140625 -5.5q0.25 -1.21875 0.25 -1.453125q0 -0.5 -0.296875 -0.78125q-0.296875 -0.296875 -0.8125 -0.296875q-0.578125 0 -1.28125 0.484375q-0.703125 0.484375 -1.109375 1.265625q-0.28125 0.5625 -0.640625 2.3125l-0.84375 3.96875l-2.609375 0l2.03125 -9.671875zm9.989746 1.9375l0.390625 -1.9375l1.28125 0l0.3125 -1.546875l3.0 -1.8125l-0.703125 3.359375l1.59375 0l-0.390625 1.9375l-1.609375 0l-0.84375 4.046875q-0.234375 1.109375 -0.234375 1.265625q0 0.296875 0.1875 0.46875q0.203125 0.171875 0.703125 0.171875q0.171875 0 0.859375 -0.0625l-0.40625 1.9375q-0.671875 0.140625 -1.390625 0.140625q-1.375 0 -2.015625 -0.53125q-0.625 -0.546875 -0.625 -1.484375q0 -0.453125 0.34375 -2.0625l0.8125 -3.890625l-1.265625 0zm9.2439575 0.796875l-2.546875 -0.21875q0.4375 -1.28125 1.515625 -2.015625q1.09375 -0.734375 2.890625 -0.734375q1.859375 0 2.75 0.75q0.90625 0.75 0.90625 1.84375q0 0.4375 -0.078125 0.9375q-0.078125 0.484375 -0.546875 2.578125q-0.375 1.734375 -0.375 2.421875q0 0.625 0.21875 1.375l-2.546875 0q-0.15625 -0.53125 -0.1875 -1.09375q-0.578125 0.640625 -1.328125 0.984375q-0.75 0.34375 -1.5 0.34375q-1.203125 0 -1.984375 -0.78125q-0.78125 -0.796875 -0.78125 -2.046875q0 -1.375 0.859375 -2.203125q0.859375 -0.828125 3.0625 -1.0q1.875 -0.15625 2.5 -0.375q0.171875 -0.546875 0.171875 -0.875q0 -0.421875 -0.34375 -0.703125q-0.328125 -0.28125 -1.0 -0.28125q-0.703125 0 -1.109375 0.296875q-0.40625 0.28125 -0.546875 0.796875zm2.484375 2.421875q-0.234375 0.0625 -0.625 0.125q-1.96875 0.234375 -2.578125 0.6875q-0.421875 0.328125 -0.421875 0.890625q0 0.453125 0.328125 0.765625q0.328125 0.3125 0.859375 0.3125q0.59375 0 1.109375 -0.28125q0.53125 -0.296875 0.796875 -0.734375q0.265625 -0.453125 0.453125 -1.40625l0.078125 -0.359375zm8.656921 1.796875l-2.40625 2.71875l-3.203125 0l4.46875 -4.953125l-2.453125 -4.71875l2.765625 0l1.421875 2.75l2.453125 -2.75l3.171875 0l-4.484375 5.015625l2.4375 4.65625l-2.78125 0l-1.390625 -2.71875zm16.934021 2.71875l-2.75 0l2.328125 -11.125l-3.921875 0l0.46875 -2.234375l10.53125 0l-0.46875 2.234375l-3.859375 0l-2.328125 11.125zm7.105652 -9.671875l2.4375 0l-0.390625 1.875q1.375 -2.109375 2.96875 -2.109375q0.5625 0 1.203125 0.28125l-1.0 2.140625q-0.359375 -0.125 -0.75 -0.125q-0.6875 0 -1.390625 0.515625q-0.6875 0.5 -1.078125 1.359375q-0.390625 0.859375 -0.765625 2.703125l-0.640625 3.03125l-2.625 0l2.03125 -9.671875zm14.807129 5.640625l-6.5625 0q-0.015625 0.15625 -0.015625 0.234375q0 0.96875 0.546875 1.5625q0.5625 0.59375 1.359375 0.59375q1.296875 0 2.03125 -1.34375l2.328125 0.390625q-0.671875 1.40625 -1.828125 2.125q-1.140625 0.703125 -2.5625 0.703125q-1.9375 0 -3.171875 -1.234375q-1.21875 -1.234375 -1.21875 -3.265625q0 -2.0 1.109375 -3.546875q1.5 -2.09375 4.296875 -2.09375q1.765625 0 2.8125 1.109375q1.046875 1.09375 1.046875 3.0625q0 0.953125 -0.171875 1.703125zm-2.203125 -1.59375q0 -0.171875 0 -0.265625q0 -1.0625 -0.484375 -1.59375q-0.484375 -0.546875 -1.296875 -0.546875q-0.796875 0 -1.453125 0.609375q-0.640625 0.609375 -0.859375 1.796875l4.09375 0zm12.578857 1.59375l-6.5625 0q-0.015625 0.15625 -0.015625 0.234375q0 0.96875 0.546875 1.5625q0.5625 0.59375 1.359375 0.59375q1.296875 0 2.03125 -1.34375l2.328125 0.390625q-0.671875 1.40625 -1.828125 2.125q-1.140625 0.703125 -2.5625 0.703125q-1.9375 0 -3.171875 -1.234375q-1.21875 -1.234375 -1.21875 -3.265625q0 -2.0 1.109375 -3.546875q1.5 -2.09375 4.296875 -2.09375q1.765625 0 2.8125 1.109375q1.046875 1.09375 1.046875 3.0625q0 0.953125 -0.171875 1.703125zm-2.203125 -1.59375q0 -0.171875 0 -0.265625q0 -1.0625 -0.484375 -1.59375q-0.484375 -0.546875 -1.296875 -0.546875q-0.796875 0 -1.453125 0.609375q-0.640625 0.609375 -0.859375 1.796875l4.09375 0z" fill-rule="nonzero"/><path fill="#fff2cc" d="m786.72 222.90752l109.480286 0l0 -23.055115l46.11023 46.11023l-46.11023 46.110245l0 -23.055115l-109.480286 0z" fill-rule="evenodd"/><path stroke="#595959" stroke-width="1.0" stroke-linejoin="round" stroke-linecap="butt" d="m786.72 222.90752l109.480286 0l0 -23.055115l46.11023 46.11023l-46.11023 46.110245l0 -23.055115l-109.480286 0z" fill-rule="evenodd"/><path fill="#000000" d="m807.01074 237.5545l2.609375 -0.140625q0.0625 1.25 0.4375 1.6875q0.59375 0.71875 2.21875 0.71875q1.34375 0 1.9375 -0.484375q0.609375 -0.484375 0.609375 -1.171875q0 -0.59375 -0.484375 -1.0q-0.359375 -0.296875 -1.90625 -0.96875q-1.546875 -0.6875 -2.265625 -1.125q-0.71875 -0.453125 -1.125 -1.171875q-0.40625 -0.71875 -0.40625 -1.6875q0 -1.6875 1.21875 -2.796875q1.21875 -1.109375 3.53125 -1.109375q2.34375 0 3.625 1.109375q1.296875 1.09375 1.421875 2.921875l-2.625 0.125q-0.09375 -0.96875 -0.6875 -1.46875q-0.59375 -0.515625 -1.75 -0.515625q-1.140625 0 -1.640625 0.40625q-0.484375 0.390625 -0.484375 1.0q0 0.578125 0.453125 0.953125q0.453125 0.390625 1.984375 1.046875q2.296875 1.0 2.921875 1.609375q0.9375 0.921875 0.9375 2.34375q0 1.765625 -1.40625 3.03125q-1.390625 1.25 -3.875 1.25q-1.734375 0 -3.0 -0.578125q-1.25 -0.578125 -1.78125 -1.609375q-0.515625 -1.03125 -0.46875 -2.375zm12.6623535 -3.40625l0.390625 -1.9375l1.28125 0l0.3125 -1.546875l3.0 -1.8125l-0.703125 3.359375l1.59375 0l-0.390625 1.9375l-1.609375 0l-0.84375 4.046875q-0.234375 1.109375 -0.234375 1.265625q0 0.296875 0.1875 0.46875q0.203125 0.171875 0.703125 0.171875q0.171875 0 0.859375 -0.0625l-0.40625 1.9375q-0.671875 0.140625 -1.390625 0.140625q-1.375 0 -2.015625 -0.53125q-0.625 -0.546875 -0.625 -1.484375q0 -0.453125 0.34375 -2.0625l0.8125 -3.890625l-1.265625 0zm7.4313965 -1.9375l2.4375 0l-0.390625 1.875q1.375 -2.109375 2.96875 -2.109375q0.5625 0 1.203125 0.28125l-1.0 2.140625q-0.359375 -0.125 -0.75 -0.125q-0.6875 0 -1.390625 0.515625q-0.6875 0.5 -1.078125 1.359375q-0.390625 0.859375 -0.765625 2.703125l-0.640625 3.03125l-2.625 0l2.03125 -9.671875zm7.385254 0l2.609375 0l-1.1875 5.734375q-0.21875 1.015625 -0.21875 1.28125q0 0.421875 0.3125 0.71875q0.3125 0.296875 0.796875 0.296875q0.34375 0 0.671875 -0.125q0.34375 -0.140625 0.6875 -0.40625q0.359375 -0.265625 0.640625 -0.609375q0.28125 -0.359375 0.53125 -0.921875q0.171875 -0.421875 0.375 -1.359375l0.96875 -4.609375l2.609375 0l-2.015625 9.671875l-2.4375 0l0.265625 -1.3125q-1.609375 1.546875 -3.484375 1.546875q-1.203125 0 -1.890625 -0.6875q-0.671875 -0.6875 -0.671875 -1.828125q0 -0.5 0.3125 -2.0l1.125 -5.390625zm15.958496 6.03125l2.53125 0.40625q-0.625 1.6875 -1.859375 2.578125q-1.21875 0.890625 -2.84375 0.890625q-1.859375 0 -2.9375 -1.109375q-1.078125 -1.109375 -1.078125 -3.03125q0 -1.578125 0.65625 -2.984375q0.65625 -1.40625 1.96875 -2.203125q1.328125 -0.8125 2.90625 -0.8125q1.703125 0 2.71875 0.90625q1.03125 0.890625 1.15625 2.34375l-2.484375 0.265625q-0.09375 -0.8125 -0.5 -1.1875q-0.40625 -0.390625 -1.0625 -0.390625q-0.75 0 -1.40625 0.5625q-0.65625 0.5625 -1.015625 1.6875q-0.34375 1.125 -0.34375 2.109375q0 0.859375 0.421875 1.328125q0.421875 0.453125 1.046875 0.453125q0.625 0 1.203125 -0.453125q0.59375 -0.453125 0.921875 -1.359375zm4.4694824 -4.09375l0.390625 -1.9375l1.28125 0l0.3125 -1.546875l3.0 -1.8125l-0.703125 3.359375l1.59375 0l-0.390625 1.9375l-1.609375 0l-0.84375 4.046875q-0.234375 1.109375 -0.234375 1.265625q0 0.296875 0.1875 0.46875q0.203125 0.171875 0.703125 0.171875q0.171875 0 0.859375 -0.0625l-0.40625 1.9375q-0.671875 0.140625 -1.390625 0.140625q-1.375 0 -2.015625 -0.53125q-0.625 -0.546875 -0.625 -1.484375q0 -0.453125 0.34375 -2.0625l0.8125 -3.890625l-1.265625 0zm7.5563965 -1.9375l2.609375 0l-1.1875 5.734375q-0.21875 1.015625 -0.21875 1.28125q0 0.421875 0.3125 0.71875q0.3125 0.296875 0.796875 0.296875q0.34375 0 0.671875 -0.125q0.34375 -0.140625 0.6875 -0.40625q0.359375 -0.265625 0.640625 -0.609375q0.28125 -0.359375 0.53125 -0.921875q0.171875 -0.421875 0.375 -1.359375l0.96875 -4.609375l2.609375 0l-2.015625 9.671875l-2.4375 0l0.265625 -1.3125q-1.609375 1.546875 -3.484375 1.546875q-1.203125 0 -1.890625 -0.6875q-0.671875 -0.6875 -0.671875 -1.828125q0 -0.5 0.3125 -2.0l1.125 -5.390625zm11.270996 0l2.4375 0l-0.390625 1.875q1.375 -2.109375 2.96875 -2.109375q0.5625 0 1.203125 0.28125l-1.0 2.140625q-0.359375 -0.125 -0.75 -0.125q-0.6875 0 -1.390625 0.515625q-0.6875 0.5 -1.078125 1.359375q-0.390625 0.859375 -0.765625 2.703125l-0.640625 3.03125l-2.625 0l2.03125 -9.671875zm14.807129 5.640625l-6.5625 0q-0.015625 0.15625 -0.015625 0.234375q0 0.96875 0.546875 1.5625q0.5625 0.59375 1.359375 0.59375q1.296875 0 2.03125 -1.34375l2.328125 0.390625q-0.671875 1.40625 -1.828125 2.125q-1.140625 0.703125 -2.5625 0.703125q-1.9375 0 -3.171875 -1.234375q-1.21875 -1.234375 -1.21875 -3.265625q0 -2.0 1.109375 -3.546875q1.5 -2.09375 4.296875 -2.09375q1.765625 0 2.8125 1.109375q1.046875 1.09375 1.046875 3.0625q0 0.953125 -0.171875 1.703125zm-2.203125 -1.59375q0 -0.171875 0 -0.265625q0 -1.0625 -0.484375 -1.59375q-0.484375 -0.546875 -1.296875 -0.546875q-0.796875 0 -1.453125 0.609375q-0.640625 0.609375 -0.859375 1.796875l4.09375 0zm12.094482 5.625l-2.484375 0l0.21875 -1.046875q-0.703125 0.6875 -1.390625 0.984375q-0.6875 0.296875 -1.5625 0.296875q-1.5 0 -2.4375 -1.03125q-0.921875 -1.03125 -0.921875 -3.03125q0 -2.328125 1.296875 -4.203125q1.3125 -1.875 3.484375 -1.875q1.9375 0 2.921875 1.546875l1.046875 -5.0l2.609375 0l-2.78125 13.359375zm-6.046875 -3.9375q0 1.046875 0.515625 1.625q0.53125 0.578125 1.296875 0.578125q0.71875 0 1.328125 -0.484375q0.609375 -0.484375 0.984375 -1.484375q0.375 -1.0 0.375 -1.921875q0 -1.046875 -0.578125 -1.6875q-0.5625 -0.65625 -1.296875 -0.65625q-1.140625 0 -1.890625 1.28125q-0.734375 1.265625 -0.734375 2.75z" fill-rule="nonzero"/><path fill="#000000" d="m833.58167 263.88263l2.796875 -13.359375l3.59375 0q1.5 0 1.921875 0.046875q0.828125 0.078125 1.484375 0.34375q0.65625 0.25 1.1875 0.71875q0.53125 0.453125 0.90625 1.109375q0.390625 0.640625 0.59375 1.484375q0.21875 0.84375 0.21875 1.84375q0 2.15625 -0.828125 3.828125q-0.8125 1.671875 -2.0625 2.65625q-0.953125 0.765625 -2.46875 1.125q-0.859375 0.203125 -2.640625 0.203125l-4.703125 0zm3.203125 -2.15625l1.390625 0q1.515625 0 2.1875 -0.171875q0.671875 -0.1875 1.25 -0.703125q0.796875 -0.734375 1.359375 -1.96875q0.5625 -1.234375 0.5625 -2.890625q0 -1.421875 -0.46875 -2.140625q-0.453125 -0.71875 -1.125 -0.953125q-0.484375 -0.171875 -1.6875 -0.171875l-1.59375 0l-1.875 9.0zm13.894775 -4.78125l-2.546875 -0.21875q0.4375 -1.28125 1.515625 -2.015625q1.09375 -0.734375 2.890625 -0.734375q1.859375 0 2.75 0.75q0.90625 0.75 0.90625 1.84375q0 0.4375 -0.078125 0.9375q-0.078125 0.484375 -0.546875 2.578125q-0.375 1.734375 -0.375 2.421875q0 0.625 0.21875 1.375l-2.546875 0q-0.15625 -0.53125 -0.1875 -1.09375q-0.578125 0.640625 -1.328125 0.984375q-0.75 0.34375 -1.5 0.34375q-1.203125 0 -1.984375 -0.78125q-0.78125 -0.796875 -0.78125 -2.046875q0 -1.375 0.859375 -2.203125q0.859375 -0.828125 3.0625 -1.0q1.875 -0.15625 2.5 -0.375q0.171875 -0.546875 0.171875 -0.875q0 -0.421875 -0.34375 -0.703125q-0.328125 -0.28125 -1.0 -0.28125q-0.703125 0 -1.109375 0.296875q-0.40625 0.28125 -0.546875 0.796875zm2.484375 2.421875q-0.234375 0.0625 -0.625 0.125q-1.96875 0.234375 -2.578125 0.6875q-0.421875 0.328125 -0.421875 0.890625q0 0.453125 0.328125 0.765625q0.328125 0.3125 0.859375 0.3125q0.59375 0 1.109375 -0.28125q0.53125 -0.296875 0.796875 -0.734375q0.265625 -0.453125 0.453125 -1.40625l0.078125 -0.359375zm4.8601074 -3.21875l0.390625 -1.9375l1.28125 0l0.3125 -1.546875l3.0 -1.8125l-0.703125 3.359375l1.59375 0l-0.390625 1.9375l-1.609375 0l-0.84375 4.046875q-0.234375 1.109375 -0.234375 1.265625q0 0.296875 0.1875 0.46875q0.203125 0.171875 0.703125 0.171875q0.171875 0 0.859375 -0.0625l-0.40625 1.9375q-0.671875 0.140625 -1.390625 0.140625q-1.375 0 -2.015625 -0.53125q-0.625 -0.546875 -0.625 -1.484375q0 -0.453125 0.34375 -2.0625l0.8125 -3.890625l-1.265625 0zm9.2439575 0.796875l-2.546875 -0.21875q0.4375 -1.28125 1.515625 -2.015625q1.09375 -0.734375 2.890625 -0.734375q1.859375 0 2.75 0.75q0.90625 0.75 0.90625 1.84375q0 0.4375 -0.078125 0.9375q-0.078125 0.484375 -0.546875 2.578125q-0.375 1.734375 -0.375 2.421875q0 0.625 0.21875 1.375l-2.546875 0q-0.15625 -0.53125 -0.1875 -1.09375q-0.578125 0.640625 -1.328125 0.984375q-0.75 0.34375 -1.5 0.34375q-1.203125 0 -1.984375 -0.78125q-0.78125 -0.796875 -0.78125 -2.046875q0 -1.375 0.859375 -2.203125q0.859375 -0.828125 3.0625 -1.0q1.875 -0.15625 2.5 -0.375q0.171875 -0.546875 0.171875 -0.875q0 -0.421875 -0.34375 -0.703125q-0.328125 -0.28125 -1.0 -0.28125q-0.703125 0 -1.109375 0.296875q-0.40625 0.28125 -0.546875 0.796875zm2.484375 2.421875q-0.234375 0.0625 -0.625 0.125q-1.96875 0.234375 -2.578125 0.6875q-0.421875 0.328125 -0.421875 0.890625q0 0.453125 0.328125 0.765625q0.328125 0.3125 0.859375 0.3125q0.59375 0 1.109375 -0.28125q0.53125 -0.296875 0.796875 -0.734375q0.265625 -0.453125 0.453125 -1.40625l0.078125 -0.359375z" fill-rule="nonzero"/></g></svg>